<?xml version="1.0" standalone="no"?>
<!DOCTYPE svg PUBLIC "-//W3C//DTD SVG 1.1//EN" "http://www.w3.org/Graphics/SVG/1.1/DTD/svg11.dtd">
<svg
    xmlns="http://www.w3.org/2000/svg"
    width="32"
    height="32"
>
    <desc>Created with Raphaël 1.1.2</desc>
    <path
        d="M23.356,17.485C23.352,17.492,23.349,17.498,23.346,17.506L23.508,17.511C23.615,17.515,23.726,17.521,23.837999999999997,17.526999999999997C23.791999999999998,17.522999999999996,23.747999999999998,17.517999999999997,23.701999999999998,17.513999999999996L23.356,17.485ZM15.5,1.249C7.629,1.25,1.25,7.629,1.249,15.5C1.25,23.371,7.629,29.75,15.5,29.751C23.371000000000002,29.75,29.75,23.371000000000002,29.750999999999998,15.500000000000002C29.75,7.629,23.371,1.25,15.5,1.249ZM3.771,17.093C4.62,17.001,5.604,16.945,6.561999999999999,16.937C6.824,16.937,7.068999999999999,16.931,7.278999999999999,16.925C7.341999999999999,17.138,7.414999999999999,17.344,7.497999999999999,17.538H7.492C6.574,17.569,5.445,17.69,4.3580000000000005,17.873C4.220000000000001,17.896,4.07,17.924,3.9170000000000007,17.953C3.857,17.67,3.81,17.383,3.771,17.093ZM12.196,22.224C12.096,22.252,11.972,22.294,11.839,22.341C11.360000000000001,22.51,11.174,22.547,10.689,22.547C10.187,22.562,10.068,22.528000000000002,9.768,22.377C9.33,22.171,8.923,21.8,8.651,21.353C8.198,20.607000000000003,7.415,20.078000000000003,6.762,20.078000000000003C6.202999999999999,20.078000000000003,6.098,20.305000000000003,6.5009999999999994,20.635C7.108999999999999,21.131,7.563,21.633000000000003,7.749,22.020000000000003C7.854,22.235000000000003,8.015,22.566000000000003,8.107,22.764000000000003C8.206,22.970000000000002,8.418,23.238000000000003,8.617999999999999,23.44C9.089999999999998,23.881,9.546,24.099,10.225999999999999,24.212C10.681,24.272,10.793,24.272,11.331,24.208C11.591,24.177999999999997,11.809999999999999,24.141,12.006,24.09V24.861C12.006,25.91,11.998000000000001,26.489,11.975,26.806C10.123,26.23,8.468,25.211000000000002,7.127,23.872C5.551,22.294,4.420999999999999,20.28,3.932,18.024C4.884,17.848000000000003,6.005,17.704,7.305,17.594L7.513,17.576C7.911,18.501,8.524,19.207,9.389,19.755C9.918999999999999,20.092,10.768999999999998,20.439999999999998,11.197,20.488C11.315,20.508,11.657,20.578,11.956999999999999,20.648C12.258999999999999,20.714,12.847,20.82,13.265999999999998,20.884H13.274999999999999C13.267999999999999,20.902,13.261,20.904,13.252999999999998,20.904C12.747,21.169,12.418,21.579,12.196,22.224ZM13.732,27.207C13.564,27.182000000000002,13.396999999999998,27.151,13.232,27.12C13.255999999999998,26.834,13.27,26.335,13.286,25.397000000000002C13.314,23.630000000000003,13.327,23.457,13.442,23.208000000000002C13.511000000000001,23.058000000000003,13.612,22.888,13.668000000000001,22.851000000000003C13.763000000000002,22.773000000000003,13.769000000000002,22.927000000000003,13.769000000000002,25.039C13.769,26.143,13.763,26.786,13.732,27.207ZM15.5,27.339C15.352,27.339,15.204,27.333,15.057,27.326999999999998C15.143,26.764999999999997,15.161,25.898999999999997,15.163,24.456L15.166,22.636L15.363,22.654999999999998L15.562,22.674999999999997L15.594,25.04C15.610999999999999,26.25,15.620999999999999,26.918,15.668999999999999,27.336C15.613,27.335,15.558,27.339,15.5,27.339ZM17.006,27.24C16.967,26.755,16.969,25.997,16.979,24.686999999999998C16.997999999999998,22.820999999999998,16.997999999999998,22.820999999999998,17.11,22.918C17.355999999999998,23.163999999999998,17.415,23.541,17.415,25.291C17.415,26.219,17.426,26.788,17.497,27.167C17.334,27.196,17.17,27.22,17.006,27.24ZM27.089,17.927C26.933999999999997,17.898,26.782,17.87,26.642999999999997,17.847C25.682999999999996,17.685000000000002,24.689999999999998,17.572000000000003,23.839,17.527C25.089,17.635,26.165999999999997,17.775000000000002,27.084999999999997,17.945C26.605999999999998,20.234,25.467,22.275,23.871,23.873C22.468999999999998,25.273,20.721,26.321,18.765,26.881C18.731,26.546,18.707,25.833,18.699,24.669C18.669,22.502000000000002,18.66,22.406,18.529,22.067C18.348,21.609,18.059,21.256,17.718,21.012C17.624,20.955000000000002,17.537,20.909,17.417,20.872C17.562,20.852,17.699,20.851,17.844,20.815C19.262,20.627000000000002,20.012,20.458000000000002,20.616,20.231C21.878999999999998,19.739,22.745,18.930000000000003,23.222,17.763C23.266000000000002,17.66,23.310000000000002,17.563000000000002,23.345000000000002,17.484L23.356,17.485000000000003C23.388,17.415000000000003,23.413,17.367000000000004,23.42,17.360000000000003C23.44,17.343000000000004,23.456000000000003,17.275000000000002,23.458000000000002,17.209000000000003C23.458000000000002,17.172000000000004,23.475,17.052000000000003,23.499000000000002,16.892000000000003C23.748,16.902000000000005,24.079,16.910000000000004,24.437,16.912000000000003C25.396,16.92,26.382,16.976000000000003,27.231,17.068C27.194,17.356,27.148,17.644,27.089,17.927ZM25.823,16.87C25.126,16.821,24.108,16.806,23.512,16.813000000000002C23.532,16.71,23.549,16.595000000000002,23.571,16.477000000000004C23.654,16.023000000000003,23.682000000000002,15.565000000000003,23.684,14.654000000000003C23.686,13.241000000000003,23.61,12.853000000000003,23.150000000000002,11.919000000000004C22.962000000000003,11.538000000000004,22.751,11.214000000000004,22.495,10.921000000000005C22.720000000000002,10.262000000000004,22.702,9.241000000000005,22.475,8.346000000000004C22.285,7.612000000000004,22.217000000000002,7.565000000000004,21.551000000000002,7.706000000000004C20.988000000000003,7.826000000000004,20.535000000000004,7.989000000000004,19.953000000000003,8.282000000000004C19.679000000000002,8.420000000000003,19.301000000000002,8.636000000000003,19.03,8.804000000000004C18.315,8.553000000000004,17.579,8.385000000000003,16.788,8.296000000000003C15.989,8.204000000000002,14.029,8.256000000000004,13.334,8.385000000000003C12.652999999999999,8.511000000000003,12.041,8.665000000000003,11.485999999999999,8.847000000000003C11.209999999999999,8.676000000000004,10.807999999999998,8.447000000000003,10.521999999999998,8.300000000000002C9.944,8.008,9.491,7.846,8.925,7.727C8.261000000000001,7.583,8.193000000000001,7.632000000000001,8.003,8.367C7.768,9.274000000000001,7.766,10.312000000000001,7.9990000000000006,10.97C8.025,11.045,8.042,11.099,8.049000000000001,11.14C7.107000000000001,12.327,6.799000000000001,13.655000000000001,7.003000000000001,15.507000000000001C7.056000000000001,15.989,7.139000000000001,16.433,7.254000000000001,16.84C6.652000000000001,16.836,5.7970000000000015,16.858,5.1800000000000015,16.897C4.726000000000002,16.927999999999997,4.223000000000002,16.973,3.7620000000000013,17.026C3.699000000000001,16.526,3.6610000000000014,16.018,3.6610000000000014,15.501999999999999C3.6610000000000014,12.229,4.984000000000002,9.277,7.129000000000001,7.129999999999999C9.275000000000002,4.985999999999999,12.228000000000002,3.662999999999999,15.500000000000002,3.662999999999999C18.773000000000003,3.662999999999999,21.726000000000003,4.985999999999999,23.871000000000002,7.129999999999999C26.016000000000002,9.277,27.339000000000002,12.229,27.339000000000002,15.501999999999999C27.339000000000002,16.009999999999998,27.303,16.509999999999998,27.241000000000003,17.000999999999998C26.78,16.946,26.276,16.899,25.823,16.87Z"
    />
</svg>
