<?xml version="1.0" standalone="no"?>
<!DOCTYPE svg PUBLIC "-//W3C//DTD SVG 1.1//EN" "http://www.w3.org/Graphics/SVG/1.1/DTD/svg11.dtd">
<svg
    xmlns="http://www.w3.org/2000/svg"
    width="32"
    height="32"
>
    <desc>Created with Raphaël 1.1.2</desc>
    <path
        d="M27.25,3.125H5.25C4.146,3.125,3.25,4.021,3.25,5.125V27.125C3.25,28.229,4.146,29.125,5.25,29.125H27.25C28.354,29.125,29.25,28.229,29.25,27.125V5.125C29.25,4.021,28.354,3.125,27.25,3.125ZM11.219,26.781H7.218999999999999V12.780999999999999H11.219V26.781ZM9.219,11.281C7.835999999999999,11.281,6.718999999999999,10.162,6.718999999999999,8.781S7.835999999999999,6.281000000000001,9.219,6.281000000000001S11.719,7.4,11.719,8.781S10.602,11.281,9.219,11.281ZM25.219,26.781H21.219V18.281C21.219,17.881,20.816000000000003,17.226,20.532,17.067999999999998C20.157,16.857,19.271,16.839,18.867,17.034L17.219,17.826999999999998V26.781H13.219000000000001V12.780999999999999H17.219V13.395C18.802,12.671999999999999,20.999000000000002,12.743,22.489,13.578999999999999C24.071,14.464999999999998,25.219,16.442999999999998,25.219,18.281V26.781Z"
    />
</svg>
