<?xml version="1.0" standalone="no"?>
<!DOCTYPE svg PUBLIC "-//W3C//DTD SVG 1.1//EN" "http://www.w3.org/Graphics/SVG/1.1/DTD/svg11.dtd">
<svg
    xmlns="http://www.w3.org/2000/svg"
    width="32"
    height="32"
>
    <desc>Created with Raphaël 1.1.2</desc>
    <path
        d="M9.208,22.73C8.916,22.334,8.656,21.935,8.429,21.5C8.162,21.077,8.030000000000001,20.566,8.030000000000001,19.973C8.030000000000001,19.619,8.080000000000002,19.319,8.182,19.08C8.271,18.828999999999997,8.353,18.598,8.43,18.386999999999997C7.971,18.439999999999998,7.537,18.464999999999996,7.13,18.464999999999996C5.202999999999999,18.441999999999997,3.686,17.896999999999995,2.58,16.828999999999997V24.038999999999998C3.569,23.586,4.593,23.267999999999997,5.6530000000000005,23.084C7.078,22.874,8.264,22.756,9.208,22.73ZM10.311,23.872C10.054,23.846,9.751,23.833,9.403,23.833C9.196,23.807,8.669,23.833,7.819000000000001,23.912C6.982000000000001,24.029,6.126000000000001,24.221,5.251000000000001,24.482C5.045000000000001,24.561999999999998,4.755000000000001,24.679,4.3820000000000014,24.836C4.008000000000002,25.006999999999998,3.6290000000000013,25.25,3.243000000000001,25.564999999999998C2.9960000000000013,25.793999999999997,2.7750000000000012,26.043999999999997,2.579000000000001,26.336V27.439999999999998C2.579000000000001,28.465999999999998,3.417000000000001,29.304999999999996,4.448000000000001,29.304999999999996H14.636000000000003C14.636000000000003,29.283999999999995,14.638000000000003,29.253999999999998,14.638000000000003,29.236999999999995C14.638000000000003,28.215999999999994,14.303000000000003,27.314999999999994,13.634000000000004,26.548999999999996C12.924,25.812,11.817,24.925,10.311,23.872ZM6.751,16.594C7.407,17.108,8.155000000000001,17.365000000000002,8.998000000000001,17.365000000000002C10.063,17.326,10.950000000000001,16.943,11.66,16.219C12.002,15.705000000000002,12.222,15.178,12.32,14.638000000000002C12.379,14.098000000000003,12.408,13.643000000000002,12.408,13.274000000000001C12.408,11.680000000000001,12,10.072000000000001,11.184,8.452000000000002C10.802,7.675000000000002,10.298,7.042000000000002,9.674,6.5550000000000015C9.037,6.094,8.304,5.85,7.476,5.824C6.38,5.848,5.468,6.289,4.742,7.146C4.129,8.042,3.837,9.043,3.863,10.15C3.863,11.613,4.291,13.135,5.147,14.716000000000001C5.562,15.453,6.097,16.079,6.751,16.594ZM27.553,2.707H4.447C3.4160000000000004,2.707,2.5780000000000003,3.545,2.5780000000000003,4.576V7.083C2.696,6.958,2.8180000000000005,6.833,2.9450000000000003,6.711C4.095000000000001,5.764,5.290000000000001,5.146000000000001,6.529,4.856C7.756,4.606,8.905,4.481,9.979,4.481H18.066L15.565999999999999,5.939H13.072C13.325999999999999,6.097,13.611999999999998,6.327,13.928999999999998,6.629C14.232999999999999,6.944,14.531999999999998,7.332,14.823999999999998,7.792999999999999C15.102999999999998,8.226999999999999,15.350999999999997,8.738999999999999,15.566999999999998,9.331C15.743999999999998,9.923,15.833999999999998,10.613,15.833999999999998,11.402C15.809999999999999,12.849,15.490999999999998,14.006,14.875999999999998,14.873999999999999C14.573999999999998,15.294999999999998,14.254999999999997,15.682999999999998,13.917999999999997,16.038C13.543999999999997,16.392,13.146999999999997,16.756,12.724999999999998,17.123C12.483999999999998,17.373,12.260999999999997,17.656000000000002,12.055999999999997,17.971C11.814999999999998,18.3,11.694999999999997,18.682,11.694999999999997,19.117C11.694999999999997,19.538,11.818999999999997,19.886,12.065999999999997,20.163C12.275999999999998,20.427,12.479999999999997,20.656,12.677999999999997,20.851L14.049999999999997,21.976C14.902999999999997,22.663999999999998,15.649999999999997,23.442999999999998,16.292999999999996,24.285999999999998C16.896999999999995,25.139999999999997,17.213999999999995,26.258,17.235999999999997,27.639999999999997C17.235999999999997,28.201999999999998,17.164999999999996,28.746,17.012999999999998,29.285999999999998H27.54C28.57,29.285999999999998,29.409,28.447999999999997,29.409,27.415999999999997V4.576C29.422,3.545,28.584,2.707,27.553,2.707ZM29.023,10.953H24.779V15.197H22.722V10.953H18.48V8.897H22.722V4.654H24.779V8.897H29.023V10.953Z"
    />
</svg>
