<?xml version="1.0" standalone="no"?>
<!DOCTYPE svg PUBLIC "-//W3C//DTD SVG 1.1//EN" "http://www.w3.org/Graphics/SVG/1.1/DTD/svg11.dtd">
<svg
    xmlns="http://www.w3.org/2000/svg"
    width="32"
    height="32"
>
    <desc>Created with Raphaël 1.1.2</desc>
    <path
        d="M26.492,9.493C25.721,9.836,24.89,10.067,24.019000000000002,10.171000000000001C24.909000000000002,9.638000000000002,25.581000000000003,8.795000000000002,25.912000000000003,7.7890000000000015C25.080000000000002,8.282000000000002,24.159000000000002,8.641000000000002,23.178000000000004,8.833000000000002C22.393000000000004,7.996000000000002,21.276000000000003,7.474000000000002,20.036000000000005,7.474000000000002C17.659000000000006,7.474000000000002,15.730000000000004,9.402000000000001,15.730000000000004,11.780000000000001C15.730000000000004,12.117,15.769000000000004,12.446000000000002,15.842000000000004,12.759C12.264000000000005,12.579,9.092000000000004,10.865,6.9680000000000035,8.260000000000002C6.597000000000003,8.896,6.385000000000003,9.635000000000002,6.385000000000003,10.425C6.385000000000003,11.919,7.145000000000003,13.237,8.300000000000004,14.008000000000001C7.594000000000005,13.986,6.930000000000004,13.792000000000002,6.350000000000004,13.47C6.350000000000004,13.488000000000001,6.350000000000004,13.506,6.350000000000004,13.523000000000001C6.350000000000004,15.609000000000002,7.834000000000004,17.352,9.804000000000004,17.745C9.443000000000003,17.844,9.063000000000004,17.892,8.670000000000003,17.892C8.392000000000003,17.892,8.123000000000003,17.869,7.860000000000003,17.816C8.408000000000003,19.526999999999997,9.998000000000003,20.771,11.882000000000003,20.805999999999997C10.408000000000003,21.951999999999998,8.552000000000003,22.647999999999996,6.535000000000003,22.647999999999996C6.187000000000003,22.647999999999996,5.845000000000002,22.626999999999995,5.508000000000003,22.585999999999995C7.413000000000003,23.810999999999996,9.676000000000002,24.523999999999994,12.108000000000002,24.523999999999994C20.027,24.523999999999994,24.356,17.961999999999993,24.356,12.273999999999994C24.356,12.086999999999994,24.354000000000003,11.901999999999994,24.346,11.716999999999993C25.186,11.115,25.915,10.356,26.492,9.493"
    />
</svg>
