<?xml version="1.0" standalone="no"?>
<!DOCTYPE svg PUBLIC "-//W3C//DTD SVG 1.1//EN" "http://www.w3.org/Graphics/SVG/1.1/DTD/svg11.dtd">
<svg
    xmlns="http://www.w3.org/2000/svg"
    width="32"
    height="32"
>
    <desc>Created with Raphaël 1.1.2</desc>
    <path
        d="M16,1.466C7.973,1.466,1.466,7.973,1.466,16C1.466,24.027,7.973,30.534,16,30.534C24.027,30.534,30.534,24.027,30.534,15.999999999999998C30.534,7.973,24.027,1.466,16,1.466ZM14.757,8H17.177V10.574H14.757V8ZM18.762,23.622H16.1C15.066,23.622,14.625000000000002,23.182,14.625000000000002,22.126V15.261000000000001C14.625000000000002,14.931000000000001,14.449000000000002,14.777000000000001,14.141000000000002,14.777000000000001H13.261000000000001V12.4H15.923000000000002C16.958000000000002,12.4,17.397000000000002,12.862,17.397000000000002,13.896V20.783C17.397000000000002,21.092000000000002,17.573,21.267000000000003,17.881,21.267000000000003H18.761V23.622Z"
    />
</svg>
